<svg xmlns="http://www.w3.org/2000/svg"  viewBox="0 0 80 80" width="80px" height="80px"><path fill="#f78f8f" d="M18.629,55.986c-0.068-0.756-0.107-1.541-0.107-2.365c0-17.606,19.862-18.202,23.13-18.174 c2.86,0.025,13.741,1.652,18.174,1.652c11.717,0,16.261-6.128,18.174-8.261c0-0.155-7.803,3.304-11.565,3.304 c-2.913,0-5.866-1.459-9.017-3.256c0.028-0.016,0.059-0.029,0.087-0.045c-5.046-2.883-10.605-6.612-17.336-6.612 c-0.045,0-0.087,0.002-0.132,0.002c-0.013,0-0.024-0.002-0.037-0.002c-5.554,0-10.095,1.218-11.264,1.561 c7.014-4.813,12.9-8.719,21.345-11.474c-0.096,0.013-17.455,3.15-29.695,9.8c0.376-0.714,3.412-4.852,8.217-8.148 c-0.113,0.037-0.217,0.077-0.329,0.115c0.054-0.038,0.106-0.077,0.161-0.115c-15.63,5.105-13.123,15.935-25.592,18.625 c1.604,0.968,3.122,1.163,4.224,1.201c0.492,0.017,0.98,0.026,1.465,0.028c3.152,0.026,6.152-0.295,9.059-1.601 c3.252-1.46,7.349-3.413,10.956-3.381c4.838,0.031,10.799,2.044,13.105,3.302c-0.153-0.001-0.354,0.001-0.577,0.007 c-19.544,0.138-32.466,7.25-32.466,23.124c0,15.055,16.424,17.784,23.391,17.784c19.95,0,26.139-4.987,27.826-6.218 c-2.224,0.585-4.884,1.652-8.261,1.652C52.938,67.54,58,62.124,58,57.057c7.6,0,10.019-9.587,14.875-11.697 c-3.588,0-9.776,2.247-15.443,1.52c-3.46-0.454-5.839-6.416-17.278-6.471c0.004-0.002,0.009-0.004,0.012-0.005 c-0.023,0-0.044,0.003-0.068,0.003c-0.035,0-0.064-0.003-0.099-0.003c-9.5,0-14.866,7.279-14.866,13.601 c0,3.954,2.692,6.225,5.617,6.225c0.021,0,0.042-0.005,0.064-0.005c0.035,0.001,0.069,0.005,0.103,0.005 c2.221,0,4.292-1.394,4.292-3.878c0-3.019-3.304-3.557-3.304-6.035c0-0.804,0.093-1.534,0.242-2.214 c1.419-3.648,6.242-4.395,7.852-4.395c3.906,0,4.968,0.752,6.716,2.407c2.206,2.087,3.197,4.957,3.197,7.506 c0,7.456-1.923,14.87-18.174,14.87c-2.945-0.33-11.15-0.946-12.886-10.861c-0.069-0.429-0.139-0.857-0.186-1.31 C18.654,56.208,18.64,56.1,18.629,55.986z"/><path fill="none" stroke="#c74343" stroke-linecap="round" stroke-linejoin="round" stroke-miterlimit="10" d="M18.629,55.986 c-0.068-0.756-0.107-1.541-0.107-2.365c0-17.606,19.862-18.202,23.13-18.174c2.86,0.025,13.741,1.652,18.174,1.652 c11.717,0,16.761-6.41,18.674-8.543c0-0.155-8.303,3.586-12.065,3.586c-2.913,0-8.958-3.285-8.93-3.301 c-5.046-2.883-10.605-6.612-17.336-6.612c-0.045,0-0.087,0.002-0.132,0.002c-0.013,0-0.024-0.002-0.037-0.002 c-5.554,0-10.095,1.218-11.264,1.561c7.014-4.813,13.319-8.479,21.764-11.234c-0.096,0.013-17.873,2.91-30.113,9.56 c0.376-0.714,8.058-8.522,8.113-8.56c-15.63,5.105-13.531,16.31-26,19c1.604,0.968,3.465,1.2,4.567,1.238 c0.492,0.017,0.98,0.026,1.465,0.028c3.152,0.026,6.152-0.295,9.059-1.601c3.252-1.46,7.349-3.413,10.956-3.381 c4.838,0.031,10.799,2.044,13.105,3.302c-0.153-0.001-0.354,0.001-0.577,0.007c-19.544,0.138-32.466,7.25-32.466,23.124 c0,15.055,15.924,17.284,22.891,17.284c19.95,0,27.313-4.769,29-6c-2.224,0.585-5.558,1.934-8.935,1.934 c1.373-0.95,6.609-6.498,6.609-11.565c7.6,0,10.47-9.259,15.326-11.369c-3.588,0-10.401,2.05-16.068,1.323 c-3.46-0.454-5.839-6.416-17.278-6.471c0.004-0.002,0.009-0.004,0.012-0.005c-0.023,0-0.044,0.003-0.068,0.003 c-0.035,0-0.064-0.003-0.099-0.003c-9.5,0-14.866,7.279-14.866,13.601c0,3.954,2.692,6.225,5.617,6.225 c0.021,0,0.042-0.005,0.064-0.005c0.035,0.001,0.069,0.005,0.103,0.005c2.221,0,4.292-1.394,4.292-3.878 c0-3.019-3.304-3.557-3.304-6.035c0-0.804,0.093-1.534,0.242-2.214c1.419-3.648,6.242-4.395,7.852-4.395 c3.906,0,4.968,0.752,6.716,2.407c2.206,2.087,3.197,4.957,3.197,7.506c0,7.456-1.923,14.87-18.174,14.87 c-2.945-0.33-11.15-0.946-12.886-10.861c-0.069-0.429-0.139-0.857-0.186-1.31C18.654,56.208,18.64,56.1,18.629,55.986z"/></svg>