<svg viewBox="0 0 24 24">
  <path d="M12 .5C5.65.5.5 5.65.5 12c0 5.08 3.29 9.39 7.86 10.92.58.1.79-.25.79-.56v-2c-3.2.7-3.88-1.54-3.88-1.54-.53-1.35-1.29-1.71-1.29-1.71-1.05-.72.08-.7.08-.7 1.16.08 1.78 1.2 1.78 1.2 1.03 1.77 2.7 1.26 3.36.97.1-.75.4-1.26.73-1.55-2.56-.3-5.26-1.28-5.26-5.7 0-1.26.45-2.3 1.2-3.12-.12-.3-.52-1.52.12-3.17 0 0 .98-.31 3.2 1.2a11.1 11.1 0 0 1 5.82 0c2.22-1.51 3.2-1.2 3.2-1.2.64 1.65.24 2.87.12 3.17.75.82 1.2 1.86 1.2 3.12 0 4.42-2.7 5.39-5.27 5.68.42.36.8 1.08.8 2.17v3.22c0 .31.21.67.8.56A11.5 11.5 0 0 0 23.5 12c0-6.35-5.15-11.5-11.5-11.5Z" />
</svg>
